<?xml version="1.0" standalone="no"?>
<!DOCTYPE svg PUBLIC "-//W3C//DTD SVG 1.1//EN" "http://www.w3.org/Graphics/SVG/1.1/DTD/svg11.dtd" >
<!--
2013-9-30: Created.
-->
<svg>
<metadata>
Created by iconfont
</metadata>
<defs>

<font id="iconfont" horiz-adv-x="1024" >
  <font-face
    font-family="iconfont"
    font-weight="500"
    font-stretch="normal"
    units-per-em="1024"
    ascent="896"
    descent="-128"
  />
    <missing-glyph />
    
    <glyph glyph-name="qqkongjian" unicode="&#58951;" d="M667.132708 370.63371 353.93859 370.63371l206.281133-33.429367L338.688257 158.808304l335.99338 0-198.576661 40.824801L667.132708 370.63371zM959.221136 610.960241c0 75.178213-61.006446 136.184659-136.183635 136.184659L200.962499 747.1449c-75.179236 0-136.184659-61.005422-136.184659-136.184659l0-622.073978c0-75.179236 61.005422-136.03014 136.184659-136.03014l622.075001 0c75.17719 0 136.183635 60.850903 136.183635 136.03014L959.221136 610.960241 959.221136 610.960241zM796.847002 350.606585l-114.616434-98.749048 38.20616-244.485247c-7.702426-7.547907-7.858992-7.547907-15.405875-7.547907L506.146177 121.989747 306.952462-0.175617c-15.251356 0-16.483416 0-16.483416 7.547907l28.192086 244.485247-119.546723 107.068528-40.054251 30.502711 0 4.622274L262.27696 394.051049l129.86779 0 30.503734 52.532447 76.410274 159.292959 15.251356 0 84.1127-159.292959 30.503734-52.532447 129.86779 0 76.41232 0c7.54893 0 7.54893 1.540076 7.54893-6.008854L796.847002 350.606585 796.847002 350.606585zM796.847002 350.606585"  horiz-adv-x="1024" />

    
    <glyph glyph-name="xinlang" unicode="&#58968;" d="M438.917006 340.188304c-125.82573-5.807263-227.525993-73.201186-227.525993-157.261697 0-83.949994 101.721753-147.060357 227.525993-141.181463 125.896338 5.734608 227.806379 84.555791 227.806379 168.501692C666.723386 294.10371 564.813345 346.000684 438.917006 340.188304L438.917006 340.188304zM524.626064 128.745614c-38.538735-49.731658-114.771977-74.000388-188.821483-33.907251-35.224246 19.11843-33.932834 56.647161-33.932834 56.647161s-14.623046 118.534673 111.931279 133.350101C540.544615 299.51086 563.169915 178.502855 524.626064 128.745614L524.626064 128.745614zM439.739744 208.132686c-8.087189-5.879917-9.758248-17.118889-5.339612-24.103978 4.235464-7.170307 14.08581-7.993045 22.083971-2.0241 7.827269 6.186909 10.839883 16.953114 6.604418 24.103978C458.88171 213.072185 449.121416 215.091168 439.739744 208.132686L439.739744 208.132686zM379.776048 191.814022c-23.630187-2.445702-40.562834-23.045879-40.562834-42.751686 0-19.74981 19.050891-33.388435 42.655496-30.614252 23.541159 2.680039 42.680055 20.881586 42.680055 40.562834C424.574347 178.763798 406.913105 194.42243 379.776048 191.814022L379.776048 191.814022zM822.744835 747.53171 201.254142 747.53171c-75.126025 0-136.03014-60.904115-136.03014-136.03014l0-621.490693c0-75.126025 60.904115-136.03014 136.03014-136.03014l621.511159 0c75.105558 0 136.00865 60.904115 136.00865 136.03014L958.773951 611.502593C958.773951 686.628618 897.87086 747.53171 822.744835 747.53171L822.744835 747.53171zM779.19497 154.494045c-51.874461-110.188588-222.915999-163.801646-349.682148-153.878646-120.465652 9.476839-275.357372 49.497321-291.348578 195.288778 0 0-8.462742 66.029856 55.543014 151.458527 0 0 92.057649 128.551818 199.285812 165.233252 107.320261 36.519752 119.830179-25.275663 119.830179-61.793368-5.691629-30.968315-16.364713-49.216935 23.911596-36.707017 0 0 105.488543 48.935526 148.917658 5.525853 35.036981-35.035958 5.785773-83.264379 5.785773-83.264379s-14.532995-16.084327 15.356756-21.871123C736.821907 308.538467 831.066361 264.875015 779.19497 154.494045L779.19497 154.494045zM675.167708 458.940942c-11.474332 0-20.694321 9.284457-20.694321 20.668739 0 11.588943 9.219989 20.903076 20.694321 20.903076 0 0 129.328507 23.912619 113.857141-115.057479 0-0.822738-0.093121-1.478677-0.280386-2.212388-1.462305-9.850345-10.135848-17.401322-20.318768-17.401322-11.522428 0-20.877493 9.219989-20.877493 20.720927C747.567645 386.536912 768.074701 479.417299 675.167708 458.940942L675.167708 458.940942zM893.806287 347.78533l-0.188288 0c-3.412726-23.515576-15.10093-25.39539-28.994358-25.39539-16.625656 0-30.051433 10.43977-30.051433 27.085892 0 14.414291 5.974062 29.067013 5.974062 29.067013 1.760087 6.067182 15.824407 43.783179-9.28855 100.171444-45.994544 77.243245-138.620128 78.371952-149.553131 73.975828-11.026124-4.324492-27.324322-6.488785-27.324322-6.488785-16.740266 0-30.170137 13.613042-30.170137 30.170137 0 13.894452 9.28855 25.654286 21.989827 29.249161 0 0 0.280386 0.468674 0.728594 0.541329 0.916882 0.187265 1.857301 1.103124 2.841721 1.196245 12.888542 2.472308 58.858526 11.499915 103.58417 1.035586C833.37187 589.724591 943.183881 512.388225 893.806287 347.78533L893.806287 347.78533zM893.806287 347.78533"  horiz-adv-x="1024" />

    
    <glyph glyph-name="mianjipingcha" unicode="&#59747;" d="M728.442052 777.629056 300.887326 777.629056 512.317737 410.866904ZM275.500123 761.325741 64.303027 395.521404 486.203986 395.839653ZM959.69595 396.17939 751.308853 757.095393 538.489816 395.868305ZM68.389088 365.414713 274.832927 7.805012 485.740428 365.712495ZM747.077481 3.609457 956.360995 366.060419 538.315854 365.755474ZM299.583634-9.629056 719.920982-9.629056 512.028141 350.988142Z"  horiz-adv-x="1024" />

    
    <glyph glyph-name="tenxunweibo" unicode="&#58913;" d="M776.683265 831.414029 247.01793 831.414029c-100.032274 0-181.876304-81.84403-181.876304-181.876304l0-529.666358c0-100.032274 81.84403-181.876304 181.876304-181.876304L776.683265-62.004937c100.032274 0 181.876304 81.84403 181.876304 181.876304L958.559569 649.537725C958.560592 749.568976 876.715539 831.414029 776.683265 831.414029zM339.904457 39.539784c-31.898501 5.942339-29.407774 23.987321-29.407774 23.987321 26.079982 143.222959 106.049315 264.374226 149.521408 321.81445-18.794042 19.886933-28.79686 47.761794-24.783453 76.915787 6.999414 51.010791 54.258765 86.782505 105.276718 79.751369 51.02614-7.089465 86.831624-54.331419 79.815837-105.333-7.023974-51.02614-54.241368-86.783529-105.283882-79.718623-2.061962 0.284479-4.056386 0.738827-6.067182 1.153266-90.673116-104.736413-127.991046-301.719786-127.991046-301.719786C377.948935 48.151929 370.762255 33.76936 339.904457 39.539784zM790.402731 413.339212c-19.998473-145.06184-153.780409-246.456135-298.842249-226.474035-12.364609 1.700735-24.272823 4.517897-35.96819 7.80578 6.925736 18.215874 14.739702 36.790928 23.489994 54.966892 6.732331-1.65264 13.5936-2.946099 20.568455-3.91517 112.37437-15.473413 216.405725 63.358003 231.878115 175.724187 15.489786 112.37437-63.374376 216.389352-175.723164 231.878115-112.366184 15.448854-216.405725-63.375399-231.879138-175.74056-8.432043-61.168128 11.265578-119.748315 48.919153-163.034167-9.962909-16.996093-19.9821-35.351136-29.726022-54.92596-58.302871 56.748469-89.989547 139.284253-78.04961 226.067782 19.990287 145.054677 153.771199 246.456135 298.825876 226.473011C708.975187 692.191174 810.368458 558.417425 790.402731 413.339212z"  horiz-adv-x="1024" />

    
    <glyph glyph-name="xiangyoujiantou" unicode="&#58952;" d="M666.253935 377.750751 273.260633-15.242552C248.123793-40.379347 248.127889-81.193761 273.303953-106.369825 298.655566-131.721439 339.279115-131.565301 364.431226-106.41319L802.13691 331.292494C827.273706 356.42929 827.269654 397.243704 802.093546 422.419768 800.919062 423.594251 799.711811 424.714017 798.474774 425.779066 796.02127 429.602816 793.123039 433.222923 789.780168 436.565749L352.074529 874.271432C326.922374 899.423544 286.298824 899.579681 260.947256 874.228068 235.771147 849.052004 235.767096 808.23759 260.903891 783.100794L666.253935 377.750751Z"  horiz-adv-x="1024" />

    
    <glyph glyph-name="03ddayin" unicode="&#59093;" d="M134.4 320 883.2 320 512 217.6ZM473.6 160 473.6-128 0 294.4C0 294.4 480 160 473.6 160zM544 160 1024 294.4 544-128ZM345.6 793.6l326.4 0 0-153.6-326.4 0 0 153.6ZM422.4 576l179.2 0 0-96-179.2 0 0 96ZM480 524.8l57.6 0 0-140.8-57.6 0 0 140.8Z"  horiz-adv-x="1024" />

    
    <glyph glyph-name="fanhui-copy" unicode="&#58880;" d="M532.207 177.866v0c3.079 1.777 6.39 3.079 9.112 5.802 0.477 0.594 0.827 1.064 1.303 1.539 0.594 0.709 1.539 0.946 2.128 1.54l319.434 331.383c8.519 8.757 12.781 20.121 12.781 31.483 0 11.836-4.733 23.79-13.964 32.666-18.107 17.398-46.871 16.924-64.265-1.183l-288.071-298.956-283.922 300.139c-17.28 18.225-46.040 19.057-64.265 1.777-18.226-17.281-19.057-46.040-1.777-64.265l316.355-334.462c13.844-14.676 35.149-17.399 52.429-9.113 0.945 0.35 1.777 1.182 2.722 1.653v0zM532.207 177.866z"  horiz-adv-x="1024" />

    
    <glyph glyph-name="flag" unicode="&#59042;" d="M707.575 790.269c-169.857 0-169.857 68.324-339.716 68.324-98.049 0-173.755-44.897-173.755-44.897l-0.712-511.499c0 0 76.418 44.833 174.467 44.833 169.853 0 169.853-68.328 339.716-68.328 106.258 0 213.002 54.753 213.002 54.753l0 511.449c0 0-106.738-54.634-213.002-54.634v0zM134.119-92.638c-16.955 0-30.699 13.745-30.699 30.699v891.88c0 16.955 13.745 30.699 30.699 30.699s30.699-13.744 30.699-30.699v-891.88c-0-16.954-13.745-30.699-30.699-30.699z"  horiz-adv-x="1024" />

    
    <glyph glyph-name="bofang" unicode="&#58890;" d="M832.0064 384 192 0 192 768 832.0064 384 832.0064 384zM832.0064 384"  horiz-adv-x="1024" />

    
    <glyph glyph-name="facebook" unicode="&#58906;" d="M853.333333 810.666667 170.666667 810.666667C123.733333 810.666667 85.333333 772.266667 85.333333 725.333333l0-682.666667c0-46.933333 38.4-85.333333 85.333333-85.333333l682.666667 0c46.933333 0 85.333333 38.4 85.333333 85.333333L938.666667 725.333333C938.666667 772.266667 900.266667 810.666667 853.333333 810.666667zM785.066667 580.266667 725.333333 580.266667c-38.4 0-42.666667-12.8-42.666667-42.666667l0-55.466667 89.6 0L768 384l-81.066667 0 0-298.666667-136.533333 0 0 298.666667-51.2 0L499.2 486.4l51.2 0L550.4 550.4c0 85.333333 34.133333 132.266667 132.266667 132.266667l102.4 0L785.066667 580.266667z"  horiz-adv-x="1024" />

    
    <glyph glyph-name="weibiaoti3" unicode="&#58930;" d="M797.145358 741.041918 227.035183 741.041918c-55.465512 0-100.522191-45.013778-100.522191-100.34165l0-588.434225c0-55.374348 45.056679-100.386339 100.522191-100.386339l570.110174 0c55.374348 0 100.345225 45.013778 100.345225 100.386339L897.490583 640.700268C897.490583 696.02814 852.517918 741.041918 797.145358 741.041918zM731.821574 640.476826c23.161128 0 41.892737-18.776298 41.892737-42.030378 0-23.071751-18.731609-41.846261-41.892737-41.846261-23.162916 0-41.89095 18.772723-41.89095 41.846261C689.930625 621.698741 708.658659 640.476826 731.821574 640.476826zM237.617408 633.278411l73.108511 0 292.158763 0 0-69.488747L310.727706 563.789664 237.617408 563.789664 237.617408 633.278411zM790.359864 421.061916 233.638348 421.061916c-19.182069 0-34.744373 15.56588-34.744373 34.744373 0 19.182069 15.562305 34.746161 34.744373 34.746161L790.359864 490.55245c19.178494 0 34.742586-15.562305 34.742586-34.746161C825.100662 436.627796 809.538358 421.061916 790.359864 421.061916z"  horiz-adv-x="1024" />

    
    <glyph glyph-name="icon_close" unicode="&#58924;" d="M511.968 519.776l284.128 284.128c37.44 37.472 98.304 37.472 135.744 0 37.472-37.472 37.472-98.304 0-135.776l-284.096-284.128 284.096-284.096c37.472-37.472 37.472-98.304 0-135.776-37.44-37.472-98.304-37.472-135.744 0l-284.128 284.128-284.128-284.128c-37.44-37.472-98.304-37.472-135.744 0-37.472 37.472-37.472 98.304 0 135.776l284.128 284.096-284.128 284.128c-37.472 37.472-37.472 98.304 0 135.776 37.44 37.472 98.304 37.472 135.744 0l284.128-284.128z"  horiz-adv-x="1024" />

    
    <glyph glyph-name="sousuo" unicode="&#58921;" d="M1015.7783-42.2318 723.5205 251.9511c118.8301 156.9516 106.7182 381.4717-36.393 524.5819-156.4109 156.4109-410.0045 156.4109-566.4154 0-156.4109-156.375-156.4109-409.9697 0-566.3805 143.06-143.06 367.404-155.2425 524.3433-36.606l292.3223-294.2136c9.6051-9.6041 25.2221-9.6041 34.8252 0l43.5763 43.5763C1025.4172-67.4519 1025.4172-51.8369 1015.7783-42.2318zM194.9153 282.1868c-114.8621 114.8611-114.8621 301.0826 0 415.9089 114.8631 114.8621 301.0458 114.8621 415.9099 0 114.8631-114.8262 114.8631-301.0478 0-415.9089C495.9611 167.3236 309.7784 167.3236 194.9153 282.1868z"  horiz-adv-x="1024" />

    
    <glyph glyph-name="CNCgongyi" unicode="&#58885;" d="M533.163 268.515v-50.517c-1.479-1.024-3.072-2.048-4.779-3.299v53.475l4.779 0.341zM518.713 267.947v-59.506c-3.186-2.048-6.713-4.437-10.695-7.054-1.251-0.91-2.503-1.707-3.755-2.617v42.667c-14.791-12.402-29.013-29.582-38.571-42.098v-57.344c7.623 13.767 19.342 36.75 43.691 53.134l3.755 2.389c15.587 10.013 24.121 15.019 29.696 19.229 1.593 1.251 2.958 2.275 3.982 3.299l2.275 2.275c2.617 3.072 3.413 5.689 3.755 6.941 1.138 4.665 0.455 11.037-8.192 17.522v-17.181c-0.569-1.138-1.138-2.275-1.934-3.299v42.781c22.528 1.707 37.774 4.893 37.774 8.647 0 5.575-33.906 10.013-75.662 10.013s-75.662-4.437-75.662-10.013c0-3.641 14.677-6.827 36.523-8.533v-69.518c6.713 12.174 16.725 31.517 35.726 47.218l2.731 1.934v18.887h0.683c4.779 0.114 9.443 0.114 13.881 0.227zM465.693 141.539c9.443 12.402 23.779 29.696 38.571 42.098v-33.906c1.251 0.91 2.503 1.821 3.755 2.617 3.982 2.617 7.509 5.006 10.695 7.054v34.361c3.527 2.048 6.713 4.096 9.671 5.917v-33.906c1.821 1.138 3.413 2.275 4.779 3.299v33.678c3.869 2.503 7.054 4.779 9.671 6.713v-32.085c0.797 1.024 1.365 2.162 1.934 3.299v17.181c8.647-6.485 9.443-12.971 8.192-17.522-0.341-1.251-1.138-3.869-3.755-6.941l-0.341-0.341c-0.341-0.455-0.797-0.91-1.365-1.365-1.138-1.138-2.731-2.389-4.551-3.755v-0.114c-5.575-4.21-14.109-9.216-29.696-19.229l-3.755-2.389c-24.235-16.498-36.067-39.367-43.691-53.134v48.469h-0.114zM465.693 92.501c9.443 12.402 23.779 29.696 38.571 42.098v-43.691c1.251 0.91 2.389 1.707 3.755 2.617 3.982 2.617 7.509 5.006 10.695 7.054v44.146c3.527 2.048 6.713 4.096 9.671 5.917v-43.691c1.821 1.138 3.413 2.275 4.779 3.299v43.577c3.869 2.503 7.054 4.779 9.671 6.713v-41.87c0.797 1.024 1.365 2.162 1.934 3.299v17.181c8.647-6.485 9.443-12.971 8.192-17.522-0.455-1.479-1.479-4.893-5.461-8.761v-0.114l-0.569-0.569-1.365-1.138c-0.797-0.683-1.707-1.365-2.617-2.162-5.575-4.21-13.995-9.102-29.355-19.001h-0.227l-0.227-0.227-3.755-2.389c-12.402-8.419-21.504-18.432-28.445-28.103h6.030c5.461 5.917 11.378 11.605 17.294 16.611v-16.839h-38.571v33.565zM518.713 85.902v-26.965h9.671v0.227h4.779v-0.227h9.671v0.227h-2.731c1.024 0.683 1.934 1.365 2.731 1.934v0.114c1.593 1.251 2.958 2.275 3.982 3.299l0.683 0.683c3.982 3.869 5.006 7.168 5.461 8.761 1.138 4.665 0.455 11.037-8.192 17.522v-17.181c-0.569-1.138-1.138-2.275-1.934-3.299v30.834c-2.503-1.934-5.803-4.21-9.671-6.713v-32.541c-1.479-1.024-3.072-2.048-4.779-3.299v32.654c-2.958-1.934-6.144-3.869-9.671-6.030zM464.782 105.927c-1.593 1.365-2.845 2.503-3.527 3.527-2.503 3.755-4.323 10.354-4.21 12.515 1.251-2.958 3.413-4.551 3.413-4.551 0.797-1.024 2.275-2.389 4.437-4.096v-7.395h-0.114zM464.782 58.823c-1.593 1.365-2.845 2.503-3.527 3.527-2.389 3.641-4.21 10.013-4.21 12.288 1.251-2.845 3.299-4.437 3.299-4.437 0.797-1.024 2.275-2.503 4.437-4.21v2.275-9.443zM464.555 208.896c-1.593 1.365-2.845 2.503-3.527 3.527-2.503 3.869-4.779 12.743-4.551 14.563 1.138-4.096 3.641-6.713 3.641-6.713 0.797-1.024 2.275-2.389 4.437-4.096v-7.282zM464.555 162.247c-1.593 1.365-2.845 2.503-3.527 3.527-2.503 3.869-4.779 12.629-4.551 14.563 1.138-4.096 3.641-6.713 3.641-6.713 0.797-1.024 2.275-2.389 4.437-4.096v-7.282zM760.035 665.941c-1.479 5.917-9.33 11.491-22.642 16.611-6.144 2.503-13.426 4.779-21.845 7.054-72.021 19.229-162.361 23.552-252.928 18.659-115.257-3.869-202.411-21.959-202.411-43.691 0.114-0.341 0.341-0.683 0.569-1.024v-0.227c-1.138-60.985-2.275-121.856-3.299-182.841l83.854-67.243h-0.227l10.24-8.192h0.114l12.743-10.126c-0.569-23.097 0.114-83.968 0.114-115.939 1.138-2.162 11.491-3.982 27.534-5.461-5.347 1.821-8.192 3.755-8.192 5.803 0 8.761 54.158 15.929 120.832 15.929 32.654 0 62.35-1.707 84.082-4.551 10.809-1.479 15.701-2.617 21.163-3.641 10.013-2.275 15.701-5.006 15.701-7.851 0-1.593-1.821-3.186-5.12-4.665 10.581 1.138 19.001 2.617 24.576 4.323v38.343h0.114c0.227 29.013 0.91 64.398 2.845 77.483 33.109 28.103 80.327 57.571 110.365 83.285 1.707 31.289 0.114 110.137 2.845 186.482-0.341 0.797-0.683 1.138-1.024 1.479zM570.027 609.621c3.186 11.378 9.216 19.57 18.091 24.69s19.911 6.827 32.995 5.006c10.24-1.365 17.863-4.21 22.755-8.533 4.893-4.323 7.737-10.24 8.533-17.863l-23.325-1.138c-0.227 2.162-0.569 3.869-1.138 4.893-0.91 1.821-2.275 3.299-4.096 4.437s-3.982 1.934-6.485 2.275c-5.689 0.797-10.581-0.569-14.677-3.982-3.072-2.503-5.461-6.941-7.282-13.085-2.162-7.623-2.162-12.971-0.227-16.157 1.934-3.186 5.461-5.12 10.354-5.803 4.779-0.683 8.761 0 11.833 1.934s5.803 5.006 8.078 9.216l20.48-8.533c-2.958-5.006-6.485-8.989-10.695-12.061s-8.875-5.12-14.109-6.258c-5.234-1.138-11.491-1.251-18.773-0.227-8.875 1.251-15.815 3.299-20.821 6.144-5.006 2.958-8.761 7.395-11.378 13.426-2.389 5.917-2.503 13.198-0.114 21.618zM495.161 644.551l37.205-38.457-0.341 38.685 28.558 0.114 0.569-69.859-28.558-0.114-37.091 38.229 0.341-38.343-28.558-0.114-0.569 69.859h28.445zM303.787 460.459c-14.563 7.395-62.578 23.438-19.911 37.547 0.91 0.341 1.138 0.455 0.683-0.341-7.737-7.851 0.341-21.731 20.594-37.091 1.024-0.341 0-0.455-1.365-0.114zM402.773 408.121c-27.648 28.331-61.667 57.458-95.459 90.795-2.048 4.551-0.455 8.306 3.186 9.785 10.809 3.186 24.803 5.917 45.283 8.078-5.917-2.503-20.821-11.037-15.246-16.498 21.731-27.648 46.877-61.44 65.536-91.705 0.341-0.569-2.503-1.251-3.299-0.455zM408.803 568.206c-6.258 1.251-12.174 4.323-17.863 9.102s-9.785 11.378-12.288 19.911c-3.299 11.264-2.389 20.594 2.958 27.762 5.347 7.168 14.45 11.833 27.534 13.881 10.126 1.593 18.659 1.138 25.6-1.479 6.827-2.617 12.743-7.282 17.749-13.995l-20.821-7.623c-1.365 1.934-2.617 3.413-3.755 4.21-1.821 1.365-3.982 2.389-6.258 2.958s-4.665 0.683-7.168 0.227c-5.689-0.91-9.443-3.527-11.264-7.851-1.479-3.186-1.251-7.851 0.569-13.995 2.275-7.623 5.12-12.515 8.761-14.905 3.527-2.389 7.851-3.186 12.743-2.389 4.779 0.797 8.078 2.503 9.785 5.12 1.821 2.617 2.617 6.258 2.389 10.695l23.552-2.162c0.114-5.461-1.024-10.126-3.072-14.109-2.162-3.982-5.234-7.282-9.443-9.785-4.21-2.503-9.899-4.323-17.067-5.461-8.989-1.365-16.498-1.479-22.642-0.114zM469.675 502.443c1.251-28.786 2.389-59.392 3.641-88.405-0.455-0.797-2.503-0.797-3.072-0.114-16.043 31.061-31.403 65.763-49.038 99.669-0.797 3.527 2.389 9.557 8.533 10.354 3.072 0.455 44.715 4.323 75.093 2.503-16.27-4.893-37.661-12.515-35.157-24.007zM505.059 304.014c-6.030 0-10.695-0.114-13.085-0.341-0.797 0-0.91 0.114-1.024 0.683-1.024 10.923 1.593 62.237 1.593 98.304 0 1.251-0.227 1.251 1.593 1.251h11.264l-0.341-99.897zM573.554 301.283c-18.773 1.593-43.918 2.503-61.667 2.731l0.341 99.897c30.947-0.114 49.607-1.138 61.667-2.275l-0.341-100.352zM598.357 298.894c-0.114-1.024-1.024-1.138-2.162-0.91-2.731 0.797-7.168 1.593-12.743 2.275l0.341 100.238c6.941-0.91 10.581-1.821 14.222-2.275 1.138-0.227 1.707-0.455 1.821-1.365 0-10.581-0.569-83.285-1.479-97.963zM588.573 416.313c-0.797-1.138-2.503-4.096-8.647-4.665-11.947 0.91-32.541 2.162-47.559 3.186-8.078 1.138-6.144 7.054-5.461 8.761 8.419 21.845 21.163 61.326 30.493 90.112 1.934 8.306 17.067 10.24 19.456 10.695 76.8-4.323 73.614-5.917 82.034-9.443 13.198-4.21 7.623-14.109 0.455-20.025-24.007-23.893-56.889-61.554-70.77-78.621zM733.867 478.208c-28.217-25.714-73.159-49.379-106.951-72.021-2.617-1.593-5.689-0.114-4.551 1.934 33.906 31.289 68.722 60.302 91.819 81.351 6.144 3.869-5.234 15.019-11.15 17.522 26.055-4.893 33.451-11.947 38.115-17.408 2.389-4.779-4.437-8.306-7.282-11.378z"  horiz-adv-x="1024" />

    
    <glyph glyph-name="jiantou" unicode="&#59052;" d="M512-100.656c-267.234 0-484.656 217.42-484.656 484.656s217.422 484.656 484.656 484.656 484.656-217.422 484.656-484.656-217.422-484.656-484.656-484.656zM512 808.074c-233.838 0-424.074-190.237-424.074-424.074s190.237-424.074 424.074-424.074 424.074 190.237 424.074 424.074-190.237 424.074-424.074 424.074zM441.315 138.257c-0.007 0-0.021 0-0.035 0-8.352 0-15.914 3.392-21.38 8.873-11.833 11.833-11.833 30.999 0 42.834l169.204 169.204c11.803 11.804 11.803 31.030 0 42.834l-169.205 169.204c-11.833 11.831-11.833 30.999 0 42.834 11.833 11.83 30.999 11.83 42.834 0l169.203-169.205c35.44-35.423 35.44-93.077 0-128.501l-169.203-169.202c-5.467-5.482-13.027-8.874-21.379-8.874-0.014 0-0.023 0-0.037 0z"  horiz-adv-x="1024" />

    
    <glyph glyph-name="weixin" unicode="&#58899;" d="M317.131 576.901c-19.96 0-40.088-13.2-40.088-33.208 0-19.986 20.129-33.328 40.088-33.328 19.965 0 33.234 13.342 33.234 33.328 0 20.033-13.294 33.208-33.234 33.208z m272.922-193.123c-13.269 0-26.63-13.337-26.63-26.63 0-13.457 13.362-26.632 26.63-26.632 20.128 0 33.327 13.175 33.327 26.631 0.001 13.294-13.2 26.63-33.327 26.63z m369.01 311.412c0 75.298-61.044 136.342-136.342 136.342H199.807c-75.298 0-136.341-61.044-136.341-136.342v-622.914c0-75.299 61.043-136.34 136.341-136.34h622.914c75.298 0 136.342 61.041 136.342 136.34V695.19zM403.627 237.135c-33.23 0-59.958 6.79-93.26 13.368l-93.073-46.668 26.635 80.086c-66.654 46.595-106.554 106.6-106.554 179.756 0 126.702 119.893 226.445 266.252 226.445 130.922 0 245.607-79.71 268.635-186.99-8.464 0.945-17.02 1.555-25.646 1.555-126.468 0-226.352-94.392-226.352-210.701 0-19.349 3.02-37.994 8.23-55.786-8.23-0.637-16.523-1.065-24.867-1.065z m392.744-93.259l20.008-66.531-73.039 39.994c-26.631-6.671-53.381-13.364-79.893-13.364C536.766 103.975 437 190.565 437 297.19c0 106.46 99.765 193.216 226.446 193.216 119.63 0 226.16-86.782 226.16-193.216 0.025-60.054-39.807-113.222-93.236-153.313z m-59.864 239.902c-13.174 0-26.444-13.337-26.444-26.63 0-13.457 13.27-26.632 26.444-26.632 19.96 0 33.327 13.175 33.327 26.631 0 13.294-13.387 26.63-33.327 26.63zM503.464 510.365c20.055 0 33.322 13.342 33.322 33.328 0 20.033-13.268 33.208-33.322 33.208-19.966 0-39.973-13.2-39.973-33.208 0-19.986 20.007-33.328 39.973-33.328z m0 0"  horiz-adv-x="1024" />

    
    <glyph glyph-name="kehufenbuqingkuang" unicode="&#59123;" d="M742.395 153.576s-0.745 154.688 0 204.8c-113.109 0-204.8-91.692-204.8-204.8s91.692-204.8 204.8-204.8 204.8 91.692 204.8 204.8c-76.652-0.169-204.8 0-204.8 0zM569.578 342.432c-11.529 11.998-22.222 37.333-28.454 50.668-7.14 1.075-14.118 1.979-21.158 3.072 1.075 23.299 15.357 24.461 21.158 42.34 4.828 15.683 0.435 36.024 8.241 50.624 5.356 10.127 17.833 10.26 23.977 18.895 5.537 7.903 9.244 21.606 10.99 31.27 3.244 17.6 5.888 41.725-2.353 59.116-4.938 10.043-7.916 10.987-9.201 23.196-1.567 14.659 4.321 62.807 4.618 73.226 0.671 26.962-0.061 29.179-6.479 55.483h0.049s-7.808 23.757-20.15 30.92l-24.701 4.291-15.027 14.211C449.72 837.626 384.002 811.081 348.81 796.728c-50.683-16.632-82.806-66.639-60.406-173.432 3.945-18.268-9.846-26.458-9.001-36.431 1.979-21.747 2.401-74.138 22.825-87.002 1.823-1.17 16.315-4.895 16.315-3.868 1.956-21.133 4.024-42.335 6.024-63.491 5.115-14.231 17.413-15.68 20.885-35.597l-15.667-3.807c-7.132-15.14-19.958-45.427-33.126-54.62-11.034-2.903-22.098-5.975-33.129-9.05-38.615-15.921-81.513-34.967-120.287-51.43-35.282-14.971-51.878-20.337-64.579-57.546 0-25.109-2.396-85.038-1.746-118.149h414.617a257.142 257.142 0 0 0-5.14 51.272c0 74.773 32.063 142.051 83.183 188.855z m428.817-137.656c0 113.109-91.692 204.8-204.8 204.8 0.745-50.112 0-204.8 0-204.8s69.749-0.699 204.8 0z"  horiz-adv-x="1024" />

    
    <glyph glyph-name="caidan" unicode="&#58963;" d="M886.186667 567.466667c5.546667 0 9.813333 6.826667 9.813333 14.08V655.786667c0 7.68-4.266667 14.08-9.813333 14.08H137.813333c-5.546667 0-9.813333-6.826667-9.813333-14.08v-74.24c0-7.68 4.266667-14.08 9.813333-14.08zM128 346.88c0-7.68 4.266667-14.08 9.813333-14.08h748.373334c5.546667 0 9.813333 6.826667 9.813333 14.08v74.24c0 7.68-4.266667 14.08-9.813333 14.08H137.813333c-5.546667 0-9.813333-6.826667-9.813333-14.08z m0-234.666667c0-7.68 4.266667-14.08 9.813333-14.08h748.373334c5.546667 0 9.813333 6.826667 9.813333 14.08v74.24c0 7.68-4.266667 14.08-9.813333 14.08H137.813333c-5.546667 0-9.813333-6.826667-9.813333-14.08z"  horiz-adv-x="1024" />

    
    <glyph glyph-name="yuyanshiqu" unicode="&#59101;" d="M512 844.8c-256 0-460.8-204.8-460.8-460.8s204.8-460.8 460.8-460.8 460.8 204.8 460.8 460.8-204.8 460.8-460.8 460.8zM424.96 593.92c-5.12-25.6-10.24-87.04 20.48-117.76 5.12-5.12 5.12-15.36 0-25.6-5.12-15.36-10.24-25.6-15.36-25.6-5.12 5.12-10.24 15.36-20.48 20.48-15.36 20.48-30.72 40.96-56.32 46.08-10.24 0-20.48 5.12-30.72 5.12-25.6 10.24-56.32 15.36-66.56 30.72-5.12 10.24-5.12 25.6-5.12 40.96 0 20.48 0 46.08-10.24 66.56-5.12 20.48-20.48 30.72-40.96 35.84C281.6 757.76 389.12 808.96 512 808.96c66.56 0 128-15.36 184.32-40.96-30.72-20.48-76.8-51.2-92.16-76.8-5.12-10.24-10.24-15.36-15.36-25.6-15.36-25.6-25.6-40.96-40.96-40.96h-30.72c-35.84 5.12-76.8 5.12-92.16-30.72z m399.36-404.48c0-71.68-25.6-112.64-35.84-122.88-40.96-35.84-87.04-61.44-138.24-81.92 25.6 46.08 5.12 102.4 0 117.76-10.24 25.6-51.2 76.8-112.64 138.24-15.36 15.36-15.36 30.72-10.24 71.68v5.12c5.12 25.6 10.24 46.08 102.4 56.32 46.08 5.12 61.44-10.24 76.8-35.84 0-5.12 5.12-5.12 5.12-10.24 15.36-25.6 30.72-30.72 46.08-35.84l30.72-15.36c30.72-20.48 30.72-40.96 30.72-87.04z"  horiz-adv-x="1024" />

    
    <glyph glyph-name="gongchang" unicode="&#58897;" d="M719.6 674.4h83V799H97v-83h622.6v-41.6zM595 633v-223.3L346 534.1v-124.6L97 534.1V-31h830V633H595zM304.6 176.4h-83v83h83v-83z m249 0h-83v83h83v-83z m249 0h-83v83h83v-83z m0 207.6h-83v83h83v-83z m0 0"  horiz-adv-x="1024" />

    
    <glyph glyph-name="linkedin" unicode="&#58881;" d="M834.4 768H193.6C158.6 768 128 742.8 128 708.2V66c0-34.8 30.6-65.8 65.6-65.8h640.6c35.2 0 61.6 31.2 61.6 65.8V708.2C896 742.8 869.4 768 834.4 768zM366 128h-110V470h110v-342z m-51.2 394h-0.8c-35.2 0-58 26.2-58 59 0 33.4 23.4 59 59.4 59s58-25.4 58.8-59c0-32.8-22.8-59-59.4-59zM768 128h-110v187c0 44.8-16 75.4-55.8 75.4-30.4 0-48.4-20.6-56.4-40.6-3-7.2-3.8-17-3.8-27V128h-110V470h110v-47.6c16 22.8 41 55.6 99.2 55.6 72.2 0 126.8-47.6 126.8-150.2V128z"  horiz-adv-x="1024" />

    
    <glyph glyph-name="youtube" unicode="&#59084;" d="M817.108885-128h-610.568056c-97.05713 0-175.735241 85.440543-175.735241 190.763532V246.548715c0 105.338984 78.678112 183.552272 175.735241 183.552272h610.568056c97.041136 0 175.720247-79.65574 175.720247-184.994724v-182.342731c0-105.261013-78.678112-190.763532-175.720247-190.763532zM334.771117 339.604365H166.480048v-52.09521h56.732448v-306.137703h54.841167V287.509155h56.748442V339.604365z m145.352783-107.013347h-48.652518v-200.767732c-4.31736-5.471921-9.297468-10.16114-14.880347-14.042666-3.958496-3.121814-8.594735-5.117056-13.66281-5.674844a11.482638 11.482638 0 0 0-10.120155 4.18641c-1.951259 3.39571-3.092825 7.440174-3.092826 11.750536 0 0.63176 0.024991 1.257522 0.072973 1.876287l-0.004998 202.686003h-48.559553v-220.960061a58.67571 58.67571 0 0 1-0.142946-4.162418c0-11.546614 3.225775-22.339514 8.824648-31.528024 5.254004-6.972351 13.799758-11.610589 23.4281-11.610589 0.65875 0 1.311502 0.021992 1.959255 0.063976a54.821174 54.821174 0 0 1 28.393214 8.58074c10.737921 6.481538 20.035389 14.603452 27.724468 24.081852l0.153942-28.713093h48.652517V232.604013z m203.884548-55.83379c0.117955 1.665367 0.18493 3.60763 0.184929 5.566885 0 16.219838-4.600252 31.366085-12.566226 44.203208-7.903997 10.901859-19.660531 9.211501-35.076675 9.211501-12.955079-0.006997-25.371362-2.308123-36.865995-6.520523-7.406187-4.71121-14.307565-10.811893-19.978411-17.935187l-0.120954 122.474474h-49.149329v-365.398191h49.211306v20.16234c5.549892-7.372199 12.489256-13.384915 20.466225-17.732263 11.590597-3.810552 24.545676-5.912754 37.990568-5.912754 0.516804 0 1.033607 0.002999 1.549411 0.008996a46.115482 46.115482 0 0 1 32.871513 21.967655c7.3712 11.042805 11.694557 24.369742 11.694557 38.707296 0 1.597393-0.053979 3.182791-0.158939 4.753194l0.010996 146.489351z m176.97577-116.117889h-50.063982v-12.035428a58.877633 58.877633 0 0 0 0.267898-5.708831c0-8.835643-1.879286-17.233453-5.261001-24.812574-3.415702-3.882525-8.743678-6.579501-14.702415-6.579501-0.732722 0-1.455447 0.040984-2.166177 0.119955a12.265341 12.265341 0 0 0-1.564406-0.084968c-6.204643 0-11.66157 3.201784-14.808374 8.042945-3.1588 7.203264-4.972111 15.517105-4.972112 24.254786 0 1.678362 0.066975 3.341731 0.197925 4.987105l-0.013994 49.583164h93.055649v67.403395c0.118955 1.673364 0.186929 3.626622 0.186929 5.595874 0 19.735503-6.826407 37.875612-18.246068 52.190174-11.790521 12.270339-28.540158 20.000402-47.09511 20.000402-1.457446 0-2.902897-0.047982-4.336352-0.141946-0.565785 0.039985-1.459446 0.056978-2.356105 0.056978-19.92643 0-37.915597-8.297848-50.69974-21.625784-12.892103-13.881727-20.789103-32.511649-20.789103-52.985872 0-1.086587 0.021992-2.167177 0.065975-3.242768l-0.004998-118.568958a86.151273 86.151273 0 0 1-0.144945-5.075072c0-20.782105 7.139288-39.895844 19.099744-55.024097a64.175621 64.175621 0 0 1 48.11972-21.608791c1.141566 0 2.275136 0.029989 3.401708 0.087966 1.416462-0.133949 3.249765-0.205922 5.101062-0.205921 19.302667 0 36.765034 7.882006 49.343256 20.603173 11.60759 14.934327 18.604932 33.943106 18.604932 54.585264 0 2.357105-0.090965 4.693217-0.270897 7.005339l0.018993 13.248966z m-93.05565 105.602883a40.061781 40.061781 0 0 0-0.15894 3.621625 41.109383 41.109383 0 0 0 5.306984 20.2673c3.325737 4.305364 8.698696 7.188269 14.744399 7.18827 0.641756 0 1.275515-0.031988 1.900278-0.095964 0.405846 0.05298 0.969632 0.07897 1.539415 0.07897 5.954738 0 11.235732-2.882905 14.523483-7.328216 3.354726-5.876768 5.310982-12.855117 5.310982-20.289292 0-1.21154-0.05198-2.411084-0.153941-3.596634l0.010996-26.552913h-43.022657v26.706854zM602.879267 6.248001a26.27102 26.27102 0 0 0-11.87249 2.906896 43.313546 43.313546 0 0 0-11.34569 9.276476l-0.044983 164.76141a36.360187 36.360187 0 0 0 9.834265 7.985966 22.425481 22.425481 0 0 0 10.511007 2.637998c0.437834 0.011995 0.949639 0.017993 1.463444 0.017994 10.016195 0 19.439615-2.539035 27.660492-7.009338 2.958876-4.933126 4.898139-11.138769 4.898139-17.797239 0-0.838681-0.030988-1.670365-0.090965-2.494052l0.005997-136.371195c0.061976-0.733721 0.096963-1.588397 0.096964-2.451069a30.880269 30.880269 0 0 0-4.378337-15.897961c-7.246247-3.44769-15.861974-5.546893-24.967515-5.546893-0.621764 0-1.241528 0.009996-1.859294 0.028989z m118.567958 523.546114c-8.643716-10.251106-18.855837-18.841842-30.330478-25.498313-9.474401-5.584878-20.16534-8.828646-31.589999-9.132531-0.744717-0.048981-1.513425-0.074972-2.289131-0.074972-10.447031 0-19.761493 4.847159-25.818192 12.415284-6.041705 9.29147-9.603352 20.575184-9.603352 32.690582 0 1.519423 0.055979 3.025851 0.165937 4.517283l-0.011995 230.88829h53.599638v-211.871514a22.417484 22.417484 0 0 1-0.068973-1.78832c0-4.573263 1.319499-8.838642 3.599632-12.435276a12.6352 12.6352 0 0 1 9.600353-4.39733c0.422839 0 0.839681 0.020992 1.251525 0.060977a30.074575 30.074575 0 0 1 15.039286 5.867771c6.263621 4.150423 11.700555 9.064557 16.3228 14.675425l0.100961 209.935249h53.708597v-276.391004H721.415237v30.5374z m-219.967438-37.593718c-1.081589-0.053979-2.349108-0.084968-3.622624-0.084968-20.442234 0-39.020177 7.979969-52.789946 20.995024-13.078032 13.488876-21.161961 31.954861-21.161961 52.308129 0 1.298507 0.032987 2.590016 0.097963 3.872529l-0.006997 143.171612a62.521249 62.521249 0 0 0-0.061977 2.817929c0 19.2157 8.390812 36.472145 21.708753 48.30565 14.605452 11.931467 33.373322 19.125734 53.820555 19.125734 1.566405 0 3.121814-0.041984 4.667227-0.125952a44.612053 44.612053 0 0 0 2.668986 0.062976c19.975412 0 38.1695-7.627103 51.828311-20.129353 13.036048-12.406287 21.179954-29.961618 21.179955-49.420226 0-0.791699-0.012995-1.5794-0.039985-2.364102l0.002999-142.679799c0.070973-1.214539 0.111957-2.634999 0.111957-4.064456 0-20.056381-7.97497-38.251469-20.92705-51.584404-13.97869-12.562228-32.586621-20.255305-52.991869-20.255305-1.577401 0-3.143806 0.045983-4.698216 0.136948z m23.605033 222.293554a18.442994 18.442994 0 0 1-6.518524 14.634441 25.542297 25.542297 0 0 1-15.994924 5.589876c-0.443831 0-0.885664-0.010996-1.323497-0.033987a15.496113 15.496113 0 0 1-0.940643 0.023991 22.895302 22.895302 0 0 1-15.017295-5.583879 19.082751 19.082751 0 0 1-6.064696-14.664429l-0.000999-150.54681c-0.031988-0.47382-0.049981-1.02761-0.049981-1.584398a24.92853 24.92853 0 0 1 5.7908-16.011917 20.7971 20.7971 0 0 1 14.862354-6.215639c0.521802 0 1.038605 0.018993 1.550411 0.056978 0.459825-0.048981 1.074592-0.074972 1.696355-0.074971 12.197366 0 22.08561 9.888244 22.08561 22.08561 0 0.636758-0.02699 1.266519-0.079969 1.889282l0.005998 150.513822zM349.287602 499.256716h-60.486022V669.749949L216.838917 895.999h60.873875l39.238094-149.788098h3.799557L358.159232 895.999h61.400675l-70.272305-219.254709v-177.487575z"  horiz-adv-x="1024" />

    
    <glyph glyph-name="mould-mg" unicode="&#58882;" d="M440.32 215.03999999999996c0-5.12 0-5.12 0 0l61.44-81.92c0-5.12 5.12-5.12 10.24-5.12s5.12 0 10.24 5.12v5.12l61.44 76.8v102.4h-143.36v-102.4z m174.08 240.64h-51.2v112.64h-107.52V455.68h-51.2c-10.24 0-15.36-5.12-15.36-15.36v-117.76h245.76v117.76c0 5.12 0 10.24-5.12 10.24s-10.24 5.12-15.36 5.12z m-122.88-81.92c0-5.12 0-10.24-5.12-10.24-5.12-5.12-5.12-5.12-10.24-5.12-10.24 0-15.36 5.12-15.36 15.36V404.48c0 10.24 5.12 15.36 15.36 15.36 10.24 0 15.36-5.12 15.36-15.36v-30.72z m76.8 0c0-5.12 0-10.24-5.12-10.24-5.12-5.12-5.12-5.12-10.24-5.12-10.24 0-15.36 5.12-15.36 15.36V404.48c0 10.24 5.12 15.36 15.36 15.36s15.36-5.12 15.36-15.36v-30.72z m250.88 107.52v158.72h-158.72v-158.72h46.08v-189.44h-46.08v-158.72h158.72v158.72h25.6v189.44h-25.6z m-614.4 0h-25.6v-189.44h25.6v-158.72h158.72v158.72h-46.08v189.44h46.08v158.72h-158.72v-158.72z"  horiz-adv-x="1024" />

    
    <glyph glyph-name="Fun_Icon15" unicode="&#58903;" d="M679.4 165.96666667H560.5c0.1 8.1-1.7 16.3-6 23.8L376.1 496.06666667c-28.3-41.8-76.1-69.2-130.3-69.2-8.8 0-17.4 0.9-25.8 2.3l153.3-263.2H266.1c-25.2 0-45.7-20.5-45.7-45.7v-46c0-25.2 20.5-45.7 45.7-45.7h413.3c25.2 0 45.7 20.5 45.7 45.7v46c0 25.2-20.4 45.7-45.7 45.7zM245.8 695.66666667c-61.6 0-111.6-50-111.6-111.6 0-61.6 50-111.6 111.6-111.6 61.6 0 111.6 49.9 111.6 111.6 0 61.7-50 111.6-111.6 111.6z m0-151.5c-22 0-39.9 17.9-39.9 39.9s17.9 39.9 39.9 39.9 39.9-17.9 39.9-39.9-17.9-39.9-39.9-39.9zM852.7 546.46666667L729 475.56666667l-55.8 70.3v76.7l55.8 70.3 123.7-70.9c11-6.3 24.9-2.5 31.2 8.4 6.3 10.9 2.5 24.9-8.4 31.2l-140.7 80.7c-9.9 5.7-22.3 3.2-29.3-5.6l-55-69.2h-79.7c-19.3 0-35.8-12-42.4-29h-135c6.2-16.9 9.8-35.1 9.8-54.2 0-19.8-3.8-38.7-10.5-56.2h135.7c6.7-17 23.1-29 42.5-29H652l53.5-67.3c4.5-5.6 11.1-8.6 17.9-8.6 3.9 0 7.8 1 11.4 3l140.7 80.7c10.9 6.3 14.7 20.2 8.4 31.2-6.3 10.9-20.2 14.7-31.2 8.4z"  horiz-adv-x="1024" />

    
    <glyph glyph-name="lingjianchoucuo" unicode="&#58939;" d="M921.1 553L511.5 313.8 101.9 553l409.6 238.8L921.1 553z m0 0M511.5 221.2L169.1 408.8l-67.2-26.6L511.5 143l409.6 239.2-67.2 26.6-342.4-187.6z m0 0M511.5 53.3L169.1 240.5l-67.2-26.2L511.5-25l409.6 239.2-67.2 26.6-342.4-187.5z m0 0"  horiz-adv-x="1024" />

    
    <glyph glyph-name="tanxianwei1" unicode="&#58883;" d="M818.019556 71.102061c28.020364-48.524929 11.368727-110.67604-37.161374-138.696404-48.530101-28.015192-110.677333-11.362263-138.696404 37.166545-28.020364 48.530101-11.368727 110.678626 37.166545 138.696404 48.524929 28.015192 110.67604 11.364848 138.691233-37.166545z m-419.030627-101.529859c-28.015192-48.528808-90.166303-65.181737-138.692525-37.166545-48.530101 28.021657-65.181737 90.171475-37.166545 138.696404 28.020364 48.531394 90.167596 65.181737 138.697697 37.166545 48.530101-28.019071 65.181737-90.166303 37.161373-138.696404zM101.544081 484.759273c56.040727 0 101.536323-45.495596 101.536323-101.529859 0-56.035556-45.495596-101.531152-101.536323-101.531151-56.034263 0-101.529859 45.495596-101.529859 101.531151 0 56.034263 45.495596 101.529859 101.529859 101.529859z m838.061252 0c56.035556 0 101.53503-45.495596 101.535031-101.529859 0-56.035556-45.499475-101.531152-101.535031-101.531151s-101.529859 45.495596-101.529858 101.531151c0 56.034263 45.494303 101.529859 101.529858 101.529859zM818.019556 695.350303c-28.015192-48.524929-90.166303-65.181737-138.692526-37.161374-48.535273 28.019071-65.186909 90.166303-37.166545 138.696404s90.166303 65.181737 138.696404 37.161374c48.531394-28.015192 65.18303-90.161131 37.162667-138.696404zM398.988929 796.885333c28.020364-48.530101 11.368727-110.677333-37.161373-138.696404-48.530101-28.020364-110.677333-11.363556-138.697697 37.161374-28.015192 48.535273-11.363556 110.681212 37.166545 138.696404 48.526222 28.020364 110.677333 11.368727 138.692525-37.161374z m0 0M255.90303 660.870465c-19.777939 12.969374-35.055192 32.837818-41.985293 55.509333-11.80703 38.652121 1.676929 83.91499 34.576808 109.596444 17.459717 13.631354 39.53002 21.317818 61.666263 21.550546 0.408566 0.005172 0.818424 0.005172 1.22699 0.005172 30.712242-0.232727 60.807758-14.833778 79.64703-38.970182 11.918222-15.272081 18.761697-33.969131 20.383031-53.241536H628.998465a99.494788 99.494788 0 0 0 3.247838 17.878627c11.33899 40.722101 49.929051 72.464808 93.838222 74.247757a106.614949 106.614949 0 0 0 4.898909 0.080162c40.141576-0.424081 78.590707-26.313697 93.535677-64.267636 11.964768-30.394182 8.115717-66.424242-9.94004-93.570586-6.131071-9.217293-13.878303-17.217939-22.72194-23.797657l109.212445-189.151677c11.914343 4.984242 24.777697 7.771798 37.873778 7.898505h1.313616c36.676525-0.347798 72.131232-21.913859 89.196606-54.231919 14.621737-27.702303 15.409131-62.348929 1.92905-90.742949-18.994424-40.025212-65.798465-64.938667-110.990222-56.270869a98.082909 98.082909 0 0 0-19.43402 5.893172l-108.955152-188.712081a98.775919 98.775919 0 0 0 18.066101-17.792c32.217212-41.278061 27.318303-107.622141-17.419636-142.545455-27.106263-21.157495-65.252848-27.146343-97.545051-15.313454-29.353374 10.750707-53.020444 35.772768-62.151111 65.676929a96.314182 96.314182 0 0 0-3.873616 20.291232H411.918222c-1.545051-16.690424-7.076202-33.013657-16.368485-46.979878-26.009859-39.100768-81.051152-56.220444-125.424484-36.619637-23.773091 10.505051-43.222626 30.422626-53.045011 54.530586-8.419556 20.650667-9.853414 44.090182-3.864565 65.599354 6.566788 23.575273 22.273293 44.148364 42.854141 57.63103L147.458586 293.167838c-19.682263-10.075798-42.600727-14.095515-65.126142-9.777131-31.202263 5.98497-58.944646 27.569131-72.570828 56.270869-13.443879 28.328081-12.706909 63.016081 1.929051 90.742949 17.025293 32.241778 52.191677 53.878949 89.197899 54.231919h1.307151c15.808646-0.151273 31.384566-4.242101 45.358546-11.429495l108.348767 187.663516z m7.646384-568.772526c-7.611475-4.976485-14.439434-11.126949-20.106343-18.289777-18.978909-24.003232-23.762747-58.39903-12.024243-86.706425 12.882747-31.080727 45.160727-53.101899 79.378101-53.152323 36.702384-0.060768 71.97996 25.712485 82.792728 61.112889a82.042828 82.042828 0 0 1 3.162505 15.826748h-40.061415a46.638545 46.638545 0 0 0-5.302303-13.959758c-12.854303-22.257778-41.359515-29.893818-63.617292-17.039515-22.256485 12.847838-29.893818 41.353051-17.044687 63.605656a46.370909 46.370909 0 0 0 12.686222 14.200243l-19.863273 34.402262z m520.793212-4.792888l-20.313212-35.192243a46.610101 46.610101 0 0 0 6.384485-8.616081c12.85301-22.252606 5.21697-50.759111-17.04598-63.605656-22.252606-12.854303-50.757818-5.218263-63.605656 17.039515a46.361859 46.361859 0 0 0-5.307475 13.959757h-40.060121a81.943273 81.943273 0 0 1 3.161212-15.826747c7.70198-25.218586 27.591111-46.400646 52.313212-55.62699 20.848485-7.782141 44.687515-7.140848 64.98004 1.824323 29.525333 13.035313 50.338909 43.817374 51.454707 76.090182 0.903758 26.051232-10.748121 52.247273-30.863515 69.050182a75.522586 75.522586 0 0 1-1.097697 0.903758z m-387.414626-61.141334c-1.464889 19.362909-9.287111 38.297859-22.47499 52.580849-15.918545 17.251556-39.029657 27.483798-62.615273 27.73204l-1.040808 0.005172c-11.62602-0.091798-23.156364-2.596202-33.782949-7.166707l20.03006-34.697051c12.020364 3.78699 25.530182 2.716444 37.298425-4.076606 13.066343-7.540364 21.091556-20.478707 22.893899-34.377697h39.691636z m14.687677 713.888323c-1.631677-27.898828-14.161455-55.429172-37.995313-74.035717-27.106263-21.156202-65.252848-27.146343-97.545051-15.317333a96.664566 96.664566 0 0 0-6.803394 2.792727L160.594747 465.259313c12.752162-9.081535 23.470545-20.980364 30.798869-34.853495 14.620444-27.702303 15.409131-62.348929 1.929051-90.742949-7.343838-15.475071-18.843152-28.690101-32.802909-38.58101l108.898262-188.611233c11.662222 5.399273 24.409212 8.657455 37.637172 9.197899a123.768242 123.768242 0 0 0 4.898909 0.080162c40.140283-0.429253 78.595879-26.316283 93.534384-64.267636 3.934384-10.004687 6.162101-20.614465 6.732283-31.317334h216.753131c1.909657 28.286707 15.43499 55.98901 38.54998 74.034424 17.459717 13.626182 39.524848 21.313939 61.666262 21.550546h1.22699c17.051152-0.125414 33.913535-4.686869 48.768-12.847839l108.156122 187.337697c-16.959354 10.308525-31.000566 25.470707-39.519677 43.424324-13.449051 28.328081-12.706909 63.016081 1.92905 90.742949 8.616081 16.318061 21.878949 29.923556 37.677253 39.418828l-108.465132 187.874263c-27.071354-14.545455-60.727596-17.470061-89.808161-4.626101-23.773091 10.499879-43.222626 30.423919-53.04501 54.524121a102.376727 102.376727 0 0 0-7.333495 32.455111h-217.160404z m359.999353-644.257616a88.044606 88.044606 0 0 1-41.267717 10.688647l-1.040808-0.005172c-23.590788-0.248242-46.707071-10.494707-62.616566-27.73204-13.196929-14.293333-21.004929-33.233455-22.47499-52.580849h39.691637c1.803636 13.89899 9.828848 26.837333 22.893899 34.377697 14.354101 8.28897 31.297939 8.056242 44.969374 0.879192l19.845171 34.372525zM140.05398 460.214303c-11.73204 5.827232-24.786747 9.029818-37.95394 9.156525h-1.115798c-31.075556-0.298667-61.302949-18.651798-75.787636-46.096808-12.465131-23.601131-13.050828-53.025616-1.64202-77.063757 18.565172-39.111111 68.944162-60.31903 111.06004-42.794667a79.628929 79.628929 0 0 1 5.475556 2.525091l-19.913697 34.479838a46.511838 46.511838 0 0 0-18.637576-3.883959c-25.69697 0-46.564848 20.870465-46.564848 46.572606s20.867879 46.564848 46.564848 46.564848c6.626263 0 12.929293-1.388606 18.637576-3.882666l19.877495 34.422949z m768.995555-156.920242c20.005495-7.736889 42.828283-8.529455 63.621172 0.121535 27.681616 11.52 48.449939 38.398707 52.434748 68.158061 3.611152 27.023515-6.464646 55.561051-26.378344 74.321454-15.687111 14.778182-36.954505 23.267556-58.565818 23.475717h-1.115798c-10.369293-0.102141-20.641616-2.20703-30.262303-5.990141l20.167111-34.93495a46.603636 46.603636 0 0 0 10.651152 1.22699c25.702141 0 46.571313-20.862707 46.571313-46.564848s-20.869172-46.572606-46.571313-46.572606c-3.661576 0-7.227475 0.424081-10.651152 1.22699l-19.900768-34.468202zM895.065212 456.59798c-13.16202-7.969616-24.292848-19.282747-31.565576-32.863677-12.646141-23.606303-13.398626-53.263515-1.883798-77.525333 7.206788-15.181576 19.206465-27.663515 33.661415-36.229172l19.479272 33.744162c-13.050828 8.252768-21.722505 22.812444-21.722505 39.383919 0 16.568889 8.671677 31.131152 21.722505 39.383919l-19.691313 34.106182z m-741.98497-4.354586L132.989414 417.440323c9.292283-8.513939 15.120808-20.746343 15.120808-34.332444 0-13.587394-5.828525-25.819798-15.120808-34.340202l20.045576-34.715152c18.045414 13.706343 30.787232 34.508283 33.934222 56.978101 3.852929 27.514828-6.546101 56.698828-27.06101 75.570425a84.536889 84.536889 0 0 1-6.82796 5.642343z m491.591112 287.808646c1.287758-19.479273 8.808727-38.636606 22.742626-53.359192 16.015515-16.928323 39.111111-26.92396 62.413576-26.958868 14.555798-0.025859 28.88404 4.009374 41.550868 11.101091l-19.60598 33.954909c-13.671434-7.177051-30.616566-7.409778-44.969373 0.877899-13.065051 7.545535-21.091556 20.485172-22.893899 34.384161h-39.237818z m-287.43499 0c-1.802343-13.89899-9.827556-26.838626-22.893899-34.384161-11.768242-6.793051-25.278061-7.858424-37.298425-4.070142l-20.099878-34.813414c1.126141-0.49002 2.262626-0.94901 3.408161-1.383434 20.959677-7.964444 45.010747-7.399434 65.470061 1.635555 28.590545 12.631919 48.994263 41.879273 51.282747 73.015596h-39.868767z m39.550707 15.268202c-2.444929 21.656566-13.242182 42.373172-29.970101 56.524283-15.363879 12.995232-35.479273 20.26796-55.500283 20.419233l-1.039515-0.005172c-23.590788-0.246949-46.701899-10.489535-62.616566-27.732041-20.333899-22.025051-27.878141-55.07103-19.136646-83.686141 5.80396-19.000889 18.525091-35.712 35.015111-46.743273l19.873616 34.419071a46.332121 46.332121 0 0 0-12.686222 14.197657c-12.849131 22.257778-5.211798 50.76299 17.044687 63.610828 22.257778 12.85301 50.76299 5.21697 63.617292-17.04598 2.504404-4.332606 4.297697-9.050505 5.302303-13.958465h40.096324z m387.277575-75.924686c13.252525 10.661495 23.535192 25.015596 28.555637 41.444848 10.025374 32.817131-1.398949 70.989576-28.939637 92.767677-14.898424 11.782465-33.757091 18.448808-52.813575 18.650505l-1.04598 0.005172c-25.888323-0.196525-51.308606-12.39402-67.343515-32.671031-10.035717-12.687515-15.914667-28.222061-17.539879-44.272485h39.515798a46.302384 46.302384 0 0 0 5.307475 13.958465c12.849131 22.262949 41.353051 29.89899 63.605656 17.04598 22.262949-12.847838 29.89899-41.353051 17.04598-63.610828a46.661818 46.661818 0 0 0-6.384485-8.61091l20.036525-34.707393z m0 0"  horiz-adv-x="1042" />

    


  </font>
</defs>
</svg>
