<!DOCTYPE svg PUBLIC "-//W3C//DTD SVG 20010904//EN" "http://www.w3.org/TR/2001/REC-SVG-20010904/DTD/svg10.dtd">
<svg version="1.0" xmlns="http://www.w3.org/2000/svg" width="176px" height="203px" viewBox="0 0 1760 2030" preserveAspectRatio="xMidYMid meet">
<g id="layer101" fill="#dddddd" stroke="none">
 <path d="M451 1785 c-233 -135 -430 -250 -437 -256 -12 -10 -14 -99 -12 -522 l3 -511 430 -248 c237 -136 437 -248 445 -248 8 0 209 112 445 249 l430 248 3 511 2 512 -37 24 c-48 31 -819 475 -836 481 -6 3 -203 -105 -436 -240z m851 -44 l413 -239 3 -489 2 -489 -420 -242 -420 -243 -420 242 -420 243 2 489 3 490 410 238 c226 130 415 238 422 238 6 1 197 -106 425 -238z"/>
 <path d="M606 1284 c-14 -13 -16 -52 -16 -269 0 -139 3 -260 6 -269 5 -14 35 -16 227 -16 l221 0 -29 30 -29 30 -163 0 -163 0 0 220 0 220 220 0 220 0 0 -163 0 -163 30 -29 30 -29 0 221 c0 192 -2 222 -16 227 -9 3 -130 6 -269 6 -217 0 -256 -2 -269 -16z"/>
 <path d="M720 1165 c0 -15 23 -101 29 -107 4 -5 26 12 50 36 l44 45 -44 11 c-24 6 -52 13 -61 16 -10 3 -18 3 -18 -1z"/>
 <path d="M807 1082 c-20 -21 -37 -42 -37 -48 0 -13 232 -244 246 -244 5 0 28 18 49 40 l39 40 -124 125 c-69 69 -127 125 -130 125 -3 0 -23 -17 -43 -38z"/>
 <path d="M1070 815 l-44 -45 34 -35 c41 -42 65 -44 102 -8 37 35 35 52 -10 96 l-38 37 -44 -45z"/>
 </g>

</svg>