<!DOCTYPE svg PUBLIC "-//W3C//DTD SVG 20010904//EN" "http://www.w3.org/TR/2001/REC-SVG-20010904/DTD/svg10.dtd">
<svg version="1.0" xmlns="http://www.w3.org/2000/svg" width="224px" height="38px" viewBox="0 0 2240 380" preserveAspectRatio="xMidYMid meet">
<g id="layer101" fill="#008fee" stroke="none">
 <path d="M63 360 c-51 -30 -64 -60 -62 -132 2 -72 22 -118 71 -165 51 -49 95 -63 199 -63 l92 0 -6 41 c-3 22 -7 42 -9 44 -2 2 -25 -1 -52 -7 -89 -19 -176 34 -192 117 -15 83 30 123 128 111 l54 -7 13 -61 c10 -49 21 -70 50 -99 79 -79 213 -73 244 11 3 9 6 5 6 -10 2 -45 13 -50 87 -48 39 1 76 -2 83 -6 20 -13 91 4 112 27 10 11 19 32 20 46 1 28 6 12 29 -101 l11 -58 51 0 c54 0 54 -2 32 71 -3 12 6 15 49 15 63 -1 102 17 118 53 l12 26 31 -31 c62 -62 174 -69 220 -13 l25 29 16 -75 17 -75 49 0 c27 0 49 2 49 4 0 5 -64 305 -75 354 -5 19 -12 22 -56 22 l-51 0 6 -32 6 -33 -15 33 -15 32 -80 0 c-92 0 -123 -11 -143 -53 -15 -29 -15 -29 -27 -8 -19 36 -70 61 -125 61 -28 0 -56 -5 -63 -12 -9 -9 -12 -9 -12 0 0 8 -31 11 -100 11 -114 0 -108 8 -84 -103 20 -88 15 -106 -25 -106 -42 0 -67 38 -87 131 l-17 79 -50 0 -49 0 5 -32 6 -33 -15 33 -14 32 -81 0 c-81 0 -114 -10 -136 -39 -10 -14 -13 -12 -22 12 -10 27 -11 27 -103 27 -75 0 -99 -4 -125 -20z m469 -56 c28 -5 37 -12 41 -30 4 -24 4 -24 -89 -24 -97 0 -104 3 -84 41 11 20 58 25 132 13z m356 -59 c0 -16 -2 -15 -8 5 -4 14 -8 34 -8 45 0 16 2 15 8 -5 4 -14 8 -34 8 -45z m167 59 c36 -14 59 -106 33 -132 -19 -19 -76 -15 -86 6 -15 29 -22 94 -11 113 10 19 34 24 64 13z m397 -26 l5 -28 -94 0 c-96 0 -103 3 -82 41 9 18 19 20 89 17 77 -3 78 -4 82 -30z m-952 -108 c-14 -25 -41 -26 -71 0 l-24 19 53 1 c50 0 52 -1 42 -20z m890 12 c0 -14 -23 -32 -41 -32 -9 0 -27 9 -40 20 l-24 19 53 1 c28 0 52 -4 52 -8z"/>
 <path d="M1610 358 c1 -13 7 -50 15 -83 9 -37 11 -61 5 -63 -14 -5 -12 -38 3 -54 8 -7 17 -26 21 -41 5 -22 12 -27 36 -27 25 0 30 4 30 25 0 13 -8 29 -17 34 -10 6 -12 11 -5 11 6 0 12 11 12 24 0 19 4 23 20 19 11 -3 20 -9 20 -13 0 -5 3 -15 6 -24 4 -11 1 -16 -10 -16 -17 0 -20 -17 -10 -44 8 -22 175 -23 193 -2 9 10 6 39 -14 122 -14 60 -27 119 -30 132 -4 17 -12 22 -35 22 -26 0 -30 -4 -30 -28 0 -15 4 -42 9 -60 8 -28 7 -32 -8 -32 -14 0 -21 14 -31 60 -12 59 -14 60 -46 60 -23 0 -34 -5 -37 -17 -4 -17 -5 -17 -6 0 -1 13 -10 17 -46 17 -40 0 -45 -2 -45 -22z m119 -81 c2 -29 -31 -16 -40 16 -5 20 -4 27 7 27 8 0 14 6 15 13 1 16 17 -32 18 -56z m125 -93 c9 -24 7 -34 -8 -34 -13 0 -26 20 -26 41 0 15 27 10 34 -7z"/>
 <path d="M1914 363 c21 -68 35 -156 29 -183 -4 -23 -2 -36 9 -44 8 -6 17 -19 21 -29 7 -19 67 -25 67 -6 0 5 4 8 9 4 5 -3 51 -8 101 -11 l92 -5 -7 62 c-4 34 -11 76 -16 93 -5 17 -9 43 -9 58 0 16 -4 28 -8 28 -5 0 -14 11 -20 25 -9 19 -19 25 -42 25 -27 0 -31 -3 -28 -22 2 -15 -3 -24 -15 -26 -16 -3 -17 -1 -8 16 16 30 14 32 -19 32 -20 0 -35 -8 -46 -25 -9 -14 -20 -25 -25 -25 -5 0 -11 11 -15 25 -5 21 -12 25 -41 25 -28 0 -33 -3 -29 -17z"/>
 </g>

</svg>