<!DOCTYPE svg PUBLIC "-//W3C//DTD SVG 20010904//EN" "http://www.w3.org/TR/2001/REC-SVG-20010904/DTD/svg10.dtd">
<svg version="1.0" xmlns="http://www.w3.org/2000/svg" width="176px" height="203px" viewBox="0 0 1760 2030" preserveAspectRatio="xMidYMid meet">
<g id="layer101" fill="#dddddd" stroke="none">
 <path d="M450 1784 c-233 -135 -430 -250 -437 -256 -11 -8 -13 -114 -11 -521 l3 -510 430 -249 c237 -136 437 -248 445 -248 8 0 209 112 445 249 l430 248 3 511 2 512 -37 24 c-50 32 -819 475 -835 481 -7 3 -204 -106 -438 -241z m852 -43 l413 -238 3 -490 2 -489 -420 -243 -420 -242 -420 242 -420 242 2 490 3 490 410 238 c226 131 415 238 422 238 6 1 198 -106 425 -238z"/>
 <path d="M824 1320 c-61 -13 -106 -34 -146 -69 -35 -31 -37 -31 -40 -10 -4 31 -32 46 -53 29 -12 -10 -15 -29 -13 -89 l3 -76 90 0 c89 0 90 0 90 25 0 21 -6 26 -33 30 l-34 5 29 26 c49 47 93 63 163 63 124 0 220 -82 237 -203 9 -61 31 -84 58 -61 24 20 14 96 -20 167 -58 118 -203 189 -331 163z"/>
 <path d="M581 1041 c-20 -13 -8 -102 24 -167 49 -99 137 -155 258 -162 90 -5 142 10 213 64 39 30 44 32 44 14 0 -26 36 -46 56 -29 11 9 14 31 12 88 l-3 76 -90 0 c-89 0 -90 0 -90 -25 0 -21 6 -26 35 -30 l34 -5 -39 -33 c-22 -18 -64 -40 -94 -49 -107 -31 -220 21 -273 126 -16 30 -28 69 -28 86 0 46 -26 67 -59 46z"/>
 </g>

</svg>