<!DOCTYPE svg PUBLIC "-//W3C//DTD SVG 20010904//EN" "http://www.w3.org/TR/2001/REC-SVG-20010904/DTD/svg10.dtd">
<svg version="1.0" xmlns="http://www.w3.org/2000/svg" width="176px" height="203px" viewBox="0 0 1760 2030" preserveAspectRatio="xMidYMid meet">
<g id="layer101" fill="#dddddd" stroke="none">
 <path d="M450 1784 c-233 -135 -430 -250 -437 -256 -11 -8 -13 -114 -11 -521 l3 -510 430 -249 c237 -136 437 -248 445 -248 8 0 209 112 445 249 l430 248 3 511 2 512 -37 24 c-50 32 -819 475 -835 481 -7 3 -204 -106 -438 -241z m852 -43 l413 -238 3 -490 2 -489 -420 -243 -420 -242 -420 242 -420 242 2 490 3 490 410 238 c226 131 415 238 422 238 6 1 198 -106 425 -238z"/>
 <path d="M750 1272 c0 -5 9 -17 20 -27 11 -10 20 -26 20 -36 0 -16 -11 -19 -102 -21 l-103 -3 0 -220 0 -220 295 0 295 0 3 214 c2 165 -1 216 -10 223 -7 4 -55 8 -105 8 -84 0 -93 2 -93 18 0 11 9 27 20 37 11 10 20 22 20 27 0 4 -58 8 -130 8 -71 0 -130 -4 -130 -8z m380 -327 l0 -155 -255 0 -255 0 0 155 0 155 255 0 255 0 0 -155z"/>
 </g>

</svg>